<svg viewBox="0 0 640 400" data-background-color="#ffffff" preserveAspectRatio="xMidYMid meet" height="400" width="640" xmlns="http://www.w3.org/2000/svg" xmlns:xlink="http://www.w3.org/1999/xlink"><rect width="640" height="400" x="0" y="0" opacity="1" fill="#ffffff" data-fill-palette-color="background" id="background"></rect><g id="tight-bounds" transform="matrix(1,0,0,1,160,20)"><svg viewBox="0 0 320 360" height="360" width="320"><g><svg></svg></g><g><svg viewBox="0 0 320 360" height="360" width="320"><g><path d="M20.961 227.22l3.726 4.658-1.863-6.056c-0.466-2.795-3.726 0.466-1.863 1.398M25.153 224.425c1.397 2.329 2.795 4.658 2.795 6.987 0 3.261 2.795 4.658 5.123 5.589-3.261-3.726-5.124-13.974-7.918-12.576M204.017 26.929c7.918 0 15.371-0.932 23.756 0.931 20.495 5.124 37.729 15.371 49.374 29.811l32.606 52.169c1.397 13.042 4.192 27.482 3.726 43.319 3.261 0 2.795-4.658 6.521-5.59-3.726 9.316-5.59 20.961-6.521 34.469-2.329-7.453 0-18.632 0.466-24.687-3.261 5.124-5.124 1.397-5.124-0.932 0.466-3.726-1.397-3.261-2.795-4.658-5.124-4.658-8.384-9.782-12.11-17.7 2.329-6.055 2.795-14.905-4.658-19.563-2.329-1.397-5.124-3.726-6.521-7.453-1.863-5.124-5.124-11.179-4.193-19.097 0.466-2.329-6.987 5.124-11.179 1.863-18.166-12.576-36.332-27.016-58.224-39.127-11.645 0-20.029-4.192-24.221-9.316-3.726-4.658-0.932-10.713 4.658-11.179 3.261 0 6.987-0.932 9.782 0.932 0.466-1.863 2.329-4.192 4.657-4.192M157.904 16.215l0.932 0.466c4.658 0.932 6.987 7.453 12.11 5.124 0 3.261 0.466 6.521-0.466 8.85-1.397 3.726-5.59 3.726-8.85 3.726-31.208-1.863-49.374 11.179-68.471 22.358-5.124 3.261-10.713 5.59-14.906 9.782-20.029 18.632-41.921 35.866-47.045 70.335l-4.192 38.195c-0.466 4.192-5.124 8.384-4.192 13.508l3.26 22.824c-3.261-3.261-5.124 0.932-4.192 2.795 0.466 1.397 2.329 6.055 5.124 1.863 3.726 6.987 7.453 20.495 12.576 26.55 15.837 18.632 36.332 35.4 53.101 52.169 4.192-0.932 7.453-0.932 8.384-3.727 1.397 2.795-1.397 5.59-3.726 6.056 7.453 4.658 15.837 8.85 27.016 9.781 14.44 0.932 27.948 3.261 40.524 6.522 6.521-1.863 13.042-2.795 20.029-3.261 2.329 0 3.726-3.726 6.521-4.658l0.466-4.658c2.795 4.192 2.329-1.397 0.466-4.192 3.261 2.795 4.192 5.124 5.589 6.987 0-1.397 3.726-6.521 3.727-0.466l0.931-6.055c1.397-0.932 1.863 5.124 3.261 0.931 1.397-4.192 4.192-0.932 6.987-2.329-0.932 1.863-0.466 5.59 2.794 3.261l3.727-3.261c2.329 5.59 6.055 3.261 7.918 2.329 20.495-13.042 40.99-28.413 60.553-43.784l-0.466 6.055 2.329-7.453c2.329 2.329 4.192 0.466 5.124-0.931 2.795-4.658 6.521-9.316 12.577-13.508-7.453 20.029-16.303 35.866-27.482 48.908l-4.658 5.59c0 3.261-0.932 7.453-4.658 7.918-1.863 0.466-5.59-0.932-8.384 1.863-1.397 1.863 3.261 5.59-0.466 2.795-3.261-2.329-6.521 0-10.248 0.932-2.795 0.932 1.863 3.726 2.795 5.589 0.932 1.863 1.863 3.726 1.398 6.056l-5.124-5.59c-6.055 3.261-9.782 9.316-14.906 13.974-2.329 1.863-1.397 5.124-1.397 7.918-3.261 0-6.987-0.932-8.85 0.932-1.397 1.863-0.932 4.658-0.932 7.453-4.658-0.466-5.124-7.453-9.315-6.056-4.192 0.932-8.85 1.397-12.577 3.727 2.795 5.59-4.658 2.329-3.726 3.26-6.987-4.192-13.042-7.453-20.495-4.658-15.837-5.124-35.4-2.795-49.84-0.931 0-2.329 0.466-4.658-0.466-5.124-0.932 2.329-3.726 1.397-3.26 1.397-8.85-6.055-17.7-9.782-27.016-14.905-8.384 0.932-16.303-3.261-18.632-5.59-6.521-6.055-13.974-2.795-20.029-4.192-13.042-3.261-17.7-16.769-19.098-26.084-0.932-4.658-4.658-6.521-6.055-6.056-6.055-19.563-15.371-37.263-22.824-55.429-1.863-4.658-1.397-9.316-1.397-14.44 2.329 0.932 4.658 0.466 4.192-2.794-2.329-15.371-7.918-27.016-13.974-38.195 3.261-15.837 3.726-34.469 11.179-48.443 6.521-12.576 18.632-19.098 27.016-29.811 2.795-3.726 2.795-8.85 5.59-12.11 9.316-9.316 18.632-19.098 28.879-27.482 4.658-3.726 10.247 0 17.234-1.397 2.329-8.384 11.645-15.837 20.495-13.508 3.726 0.932 11.179-8.85 13.508-9.782 3.726-1.397 1.863 3.726 1.863 6.987 8.85-6.987 20.961-10.713 32.14-14.906" fill="#ff5858" data-fill-palette-color="tertiary"></path></g><g transform="matrix(1,0,0,1,64,125.13305822608696)"><svg viewBox="0 0 192 109.73388354782608" height="109.73388354782608" width="192"><g><svg viewBox="0 0 192 109.73388354782608" height="109.73388354782608" width="192"><g><svg viewBox="0 0 192 109.73388354782608" height="109.73388354782608" width="192"><g transform="matrix(1,0,0,1,0,66.32518789565218)"><svg viewBox="0 0 192 43.40869565217391" height="43.40869565217391" width="192"><g><svg viewBox="0 0 192 43.40869565217391" height="43.40869565217391" width="192"><g><svg viewBox="0 0 192 43.40869565217391" height="43.40869565217391" width="192"><g transform="matrix(1,0,0,1,0,0)"><svg width="192" viewBox="2.25 -35.900001525878906 160.99000549316406 36.400001525878906" height="43.40869565217391" data-palette-color="#ff5858"><path d="M16.25 0.5L16.25 0.5Q13.5 0.5 10.83 0.03 8.15-0.45 6.1-1.2 4.05-1.95 3.15-2.7L3.15-2.7 3.15-13.15Q5.05-12.1 7.4-11.25 9.75-10.4 12.18-9.93 14.6-9.45 16.8-9.45L16.8-9.45Q19.85-9.45 19.85-10.85L19.85-10.85Q19.85-11.55 19.23-12.03 18.6-12.5 17.05-13.05 15.5-13.6 12.65-14.45L12.65-14.45Q9.35-15.5 7.03-16.65 4.7-17.8 3.48-19.6 2.25-21.4 2.25-24.4L2.25-24.4Q2.25-29.6 6.4-32.75 10.55-35.9 18.55-35.9L18.55-35.9Q20.15-35.9 21.98-35.77 23.8-35.65 24.9-35.45L24.9-35.45 31.05-31.3 28.55-23.7 15.75-26.95Q13.75-26.95 13.75-25.6L13.75-25.6Q13.75-24.55 15.03-23.88 16.3-23.2 19.65-22.05L19.65-22.05Q24.1-20.55 26.73-18.98 29.35-17.4 30.5-15.4 31.65-13.4 31.65-10.65L31.65-10.65Q31.65-5.65 27.8-2.58 23.95 0.5 16.25 0.5ZM48.3 0L37.25 0 37.25-27.4 36.75-32.4 37.25-35.4 48.3-35.4 48.3 0ZM63.3 0L51.8 0 54.2-8.45 54.2-14.8 57.9-16.3 64.9-35.35 79.95-35.35 88.5-12.95 92.34-5.85 92.34 0 81.5 0 79-7.45 65.45-7.45 63.3 0ZM71.9-26.15L68.75-16.2 76.25-16.2 72.95-26.15 71.9-26.15ZM107.84 0L96.84 0 96.84-27.35 95.84-32.4 96.84-35.4 114.84-35.4Q118.89-35.4 121.79-34.1 124.69-32.8 126.24-29.93 127.79-27.05 127.79-22.35L127.79-22.35Q127.79-15.3 124.02-12.23 120.24-9.15 113.34-9.15L113.34-9.15 107.84-9.15 107.84-8.05 108.34-3.05 107.84 0ZM107.34-25.9L107.84-18.5 110.74-18.5Q112.49-18.5 113.77-18.65 115.04-18.8 115.74-19.58 116.44-20.35 116.44-22.1L116.44-22.1Q116.44-23.95 115.69-24.75 114.94-25.55 113.62-25.73 112.29-25.9 110.54-25.9L110.54-25.9 107.34-25.9ZM143.29 0L132.29 0 132.29-27.35 131.29-32.4 132.29-35.4 150.29-35.4Q154.34-35.4 157.24-34.1 160.14-32.8 161.69-29.93 163.24-27.05 163.24-22.35L163.24-22.35Q163.24-15.3 159.47-12.23 155.69-9.15 148.79-9.15L148.79-9.15 143.29-9.15 143.29-8.05 143.79-3.05 143.29 0ZM142.79-25.9L143.29-18.5 146.19-18.5Q147.94-18.5 149.22-18.65 150.49-18.8 151.19-19.58 151.89-20.35 151.89-22.1L151.89-22.1Q151.89-23.95 151.14-24.75 150.39-25.55 149.07-25.73 147.74-25.9 145.99-25.9L145.99-25.9 142.79-25.9Z" opacity="1" transform="matrix(1,0,0,1,0,0)" fill="#ff5858" class="undefined-text-0" data-fill-palette-color="primary" id="text-0"></path></svg></g></svg></g></svg></g></svg></g><g transform="matrix(1,0,0,1,46.82799836512836,0)"><svg viewBox="0 0 98.34400326974328 59.99081739130435" height="59.99081739130435" width="98.34400326974328"><g><svg xmlns="http://www.w3.org/2000/svg" xmlns:xlink="http://www.w3.org/1999/xlink" version="1.1" x="0" y="0" viewBox="0 19.5 100 61.00099182128906" enable-background="new 0 0 100 100" xml:space="preserve" height="59.99081739130435" width="98.34400326974328" class="icon-icon-0" data-fill-palette-color="accent" id="icon-0"><path d="M27.695 19.5H4.107C1.842 19.5 0 21.341 0 23.607c0 2.261 1.841 4.102 4.107 4.102h23.588c2.269 0 4.106-1.841 4.106-4.102C31.801 21.341 29.963 19.5 27.695 19.5z" fill="#ed2647" data-fill-palette-color="accent"></path><path d="M27.695 58.803h-8.173c-2.265 0-4.107 1.842-4.107 4.106 0 2.261 1.842 4.103 4.107 4.103h8.173c2.269 0 4.105-1.842 4.105-4.103C31.8 60.645 29.963 58.803 27.695 58.803z" fill="#ed2647" data-fill-palette-color="accent"></path><path d="M27.695 39.151H11.114c-2.265 0-4.107 1.841-4.107 4.106 0 2.262 1.841 4.104 4.107 4.104h16.581c2.269 0 4.105-1.842 4.105-4.104C31.8 40.992 29.963 39.151 27.695 39.151z" fill="#ed2647" data-fill-palette-color="accent"></path><path d="M92.993 19.5H45.871c-3.87 0-7.007 3.137-7.007 7.007v33.498c0 3.87 3.137 7.007 7.007 7.007h12.088v10.686c0 1.133 0.682 2.155 1.73 2.589 0.348 0.145 0.711 0.214 1.072 0.214 0.729 0 1.445-0.284 1.981-0.821L75.41 67.012h17.583c3.87 0 7.007-3.137 7.007-7.007V26.507C100 22.637 96.863 19.5 92.993 19.5z" fill="#ed2647" data-fill-palette-color="accent"></path></svg></g></svg></g><g></g></svg></g></svg></g></svg></g></svg></g></svg><rect width="320" height="360" fill="none" stroke="none" visibility="hidden"></rect></g><defs></defs></svg>